<?xml version="1.0" encoding="utf-8"?>
<!-- Generator: Adobe Illustrator 13.0.2, SVG Export Plug-In  -->
<!DOCTYPE svg PUBLIC "-//W3C//DTD SVG 1.1//EN" "http://www.w3.org/Graphics/SVG/1.1/DTD/svg11.dtd" [
	<!ENTITY ns_flows "http://ns.adobe.com/Flows/1.0/">
]>
<svg version="1.1"
	 xmlns="http://www.w3.org/2000/svg" xmlns:xlink="http://www.w3.org/1999/xlink" xmlns:a="http://ns.adobe.com/AdobeSVGViewerExtensions/3.0/"
	 x="0px" y="0px" width="582px" height="176px" viewBox="-23.987 -20.999 582 176" enable-background="new -23.987 -20.999 582 176"
	 xml:space="preserve">
<defs>
</defs>
<rect x="13.215" y="23.001" opacity="0.25" fill="#2182BF" width="37.139" height="94.667"/>
<rect x="50.114" y="34.335" opacity="0.25" fill="#FD7A2C" width="37.14" height="83.333"/>
<rect x="124.012" y="33.001" opacity="0.25" fill="#FD7A2C" width="37.14" height="84.667"/>
<rect x="198.051" y="28.335" opacity="0.25" fill="#FD7A2C" width="37.14" height="89.333"/>
<rect x="271.709" y="22.335" opacity="0.25" fill="#FD7A2C" width="37.139" height="95.333"/>
<rect x="346.845" y="28.335" opacity="0.25" fill="#FD7A2C" width="37.14" height="89.333"/>
<rect x="421.124" y="44.667" opacity="0.25" fill="#FD7A2C" width="37.14" height="73.001"/>
<rect x="495.402" y="61.001" opacity="0.25" fill="#FD7A2C" width="37.139" height="56.667"/>
<rect x="87.49" y="43.161" opacity="0.25" fill="#2182BF" width="37.14" height="74.507"/>
<rect x="161.54" y="23.001" opacity="0.25" fill="#2182BF" width="37.14" height="94.667"/>
<rect x="235.198" y="15.668" opacity="0.25" fill="#2182BF" width="37.14" height="102"/>
<rect x="309.093" y="31.001" opacity="0.25" fill="#2182BF" width="37.14" height="86.667"/>
<rect x="383.993" y="39.668" opacity="0.25" fill="#2182BF" width="37.139" height="78"/>
<rect x="458.652" y="53.001" opacity="0.25" fill="#2182BF" width="37.14" height="64.667"/>
<rect x="12.678" y="56.009" display="none" opacity="0.25" fill="#2182BF" width="20" height="61.659"/>
<rect x="32.009" y="47.273" display="none" opacity="0.25" fill="#FD7A2C" width="20" height="70.395"/>
<rect x="72.343" y="18.498" display="none" opacity="0.25" fill="#FD7A2C" width="20" height="99.17"/>
<rect x="111.675" y="11.305" display="none" opacity="0.25" fill="#FD7A2C" width="20" height="106.363"/>
<rect x="151.34" y="10.277" display="none" opacity="0.25" fill="#FD7A2C" width="20" height="107.391"/>
<rect x="192.341" y="7.194" display="none" opacity="0.25" fill="#FD7A2C" width="20" height="110.474"/>
<rect x="232.341" y="44.667" display="none" opacity="0.25" fill="#FD7A2C" width="20" height="73.001"/>
<rect x="272.341" y="44" display="none" opacity="0.25" fill="#FD7A2C" width="20" height="73.668"/>
<rect x="312.007" y="20" display="none" opacity="0.25" fill="#FD7A2C" width="20" height="97.668"/>
<rect x="350.672" y="20.554" display="none" opacity="0.25" fill="#FD7A2C" width="20" height="97.114"/>
<rect x="390.674" y="36.667" display="none" opacity="0.25" fill="#FD7A2C" width="20" height="81.001"/>
<rect x="431.004" y="54.466" display="none" opacity="0.25" fill="#FD7A2C" width="20" height="63.202"/>
<rect x="471.67" y="46" display="none" opacity="0.25" fill="#FD7A2C" width="20" height="71.668"/>
<rect x="512.01" y="79.13" display="none" opacity="0.25" fill="#FD7A2C" width="20" height="38.538"/>
<rect x="52.676" y="43.161" display="none" opacity="0.25" fill="#2182BF" width="20" height="74.507"/>
<rect x="92.013" y="31.857" display="none" opacity="0.25" fill="#2182BF" width="20" height="85.811"/>
<rect x="131.679" display="none" opacity="0.25" fill="#2182BF" width="20" height="117.668"/>
<rect x="172.011" y="19.525" display="none" opacity="0.25" fill="#2182BF" width="20" height="98.143"/>
<rect x="212.346" y="28.774" display="none" opacity="0.25" fill="#2182BF" width="20" height="88.894"/>
<rect x="252.012" y="61.333" display="none" opacity="0.25" fill="#2182BF" width="20" height="56.335"/>
<rect x="292.664" y="33.912" display="none" opacity="0.25" fill="#2182BF" width="20" height="83.756"/>
<rect x="331.345" y="11.333" display="none" opacity="0.25" fill="#2182BF" width="20" height="106.335"/>
<rect x="370.346" y="31.857" display="none" opacity="0.25" fill="#2182BF" width="20" height="85.811"/>
<rect x="410.676" y="44.667" display="none" opacity="0.25" fill="#2182BF" width="20" height="73.001"/>
<rect x="451.679" y="36" display="none" opacity="0.25" fill="#2182BF" width="20" height="81.668"/>
<rect x="492.343" y="63.715" display="none" opacity="0.25" fill="#2182BF" width="20" height="53.953"/>
<path display="none" d="M48.025,62.947h-18v-9h45v9h-18v57.054h-9V62.947z"/>
<path display="none" d="M76.825,68.947h30v18h-12l12.186,33.054h-6.342L86.763,86.947h-3.938v33.054h-6V68.947z M100.825,74.947h-18
	v6h18V74.947z"/>
<path display="none" d="M112.825,68.947h30v51.054h-6V86.947h-18v33.054h-6V68.947z M136.825,74.947h-18v6h18V74.947z"/>
<path display="none" d="M148.825,68.947h30v6h-24v18h24v6h-30V68.947z"/>
<path display="none" d="M184.825,68.947h6v12h4.219l12-12l3.891,3.938l-11.109,11.062l36.241,36.054h-7.969l-33.054-33.054h-4.219
	v33.054h-6V68.947z"/>
<path display="none" d="M244.704,80.947h-18v-27h9v18h27v-18h9v27h-18v39.054h-9V80.947z"/>
<path display="none" d="M275.304,68.947h30v30h-30V68.947z M299.304,74.947h-18v18h18V74.947z"/>
<path display="none" d="M311.304,68.947h6v24h18v-24h6v30h-30V68.947z"/>
<path display="none" d="M347.304,68.947h30v18h-12l33.101,33.054h-8.109l-33.054-33.054h-3.938v33.054h-6V68.947z M371.304,74.947
	h-18v6h18V74.947z"/>
<path display="none" d="M383.304,92.947h24v-6h-24v-18h30v6h-24v6h24v18h-30V92.947z"/>
<path display="none" d="M419.304,68.947h30v6h-24v6h12v6h-12v6h24v6h-30V68.947z"/>
<path display="none" d="M455.304,68.947h6v24h24v6h-30V68.947z"/>
<path display="none" d="M491.304,68.947h30v6h-24v6h12v6h-12v33.054l-6,1.126V68.947z"/>
<path display="none" fill="#2182BF" d="M48.025,72.955h-18v-9h45v9h-18v47.046h-9V72.955z"/>
<path display="none" fill="#FD7A2C" d="M76.825,78.955h30v18h-12l12.186,23.046h-6.667L86.763,96.955h-3.938v23.046h-6V78.955z
	 M100.825,84.955h-18v6h18V84.955z"/>
<path display="none" fill="#2182BF" d="M112.825,78.955h30v41.046h-6V96.955h-18v23.953l-6-0.907V78.955z M136.825,84.955h-18v6h18
	V84.955z"/>
<path display="none" fill="#FD7A2C" d="M148.825,78.955h30v6h-24v18h24v6h-30V78.955z"/>
<path display="none" fill="#2182BF" d="M184.825,78.955h6v12h4.219l12-12l3.891,3.938l-11.109,11.062l12.642,26.384l-6.125-0.338
	l-11.298-23.046h-4.219v23.046h-6V78.955z"/>
<path display="none" fill="#FD7A2C" d="M243.498,90.955h-18v-27h9v18h27.001v-18h9v27h-18.001l-0.864,29.046h-8.136V90.955z"/>
<path display="none" fill="#2182BF" d="M275.304,78.955h30v30h-30V78.955z M299.304,84.955h-18v18h18V84.955z"/>
<path display="none" fill="#FD7A2C" d="M311.304,78.955h6v24h18v-24h6v30h-30V78.955z"/>
<path display="none" fill="#2182BF" d="M347.304,78.955h30v18h-12l11.039,23.137l-6.068-0.091l-13.033-23.046h-3.938v23.046h-6
	V78.955z M371.304,84.955h-18v6h18V84.955z"/>
<path display="none" fill="#FD7A2C" d="M383.304,102.955h24v-6h-24v-18h30v6h-24v6h24v18h-30V102.955z"/>
<path display="none" fill="#2182BF" d="M419.304,78.955h30v6h-24v6h12v6h-12v6h24v6h-30V78.955z"/>
<path display="none" fill="#FD7A2C" d="M455.304,78.955h6v24h24v6h-30V78.955z"/>
<path display="none" fill="#2182BF" d="M491.304,78.955h30v6h-24v6h12v6h-12v23.046h-6V78.955z"/>
<path display="none" d="M48.025,72.955h-18v-9h45v9h-18v47.046h-9V72.955z"/>
<path display="none" d="M76.825,78.955h30v18h-12l12.186,23.046h-6.667L86.763,96.955h-3.938v23.046h-6V78.955z M100.825,84.955h-18
	v6h18V84.955z"/>
<path display="none" d="M112.825,78.955h30v41.046h-6V96.955h-18v23.953l-6-0.907V78.955z M136.825,84.955h-18v6h18V84.955z"/>
<path display="none" d="M148.825,78.955h30v6h-24v18h24v6h-30V78.955z"/>
<path display="none" d="M184.825,78.955h6v12h4.219l12-12l3.891,3.938l-11.109,11.062l12.642,26.384l-6.125-0.338l-11.298-23.046
	h-4.219v23.046h-6V78.955z"/>
<path display="none" d="M243.498,90.955h-18v-27h9v18h27.001v-18h9v27h-18.001l-0.864,29.046h-8.136V90.955z"/>
<path display="none" d="M275.304,78.955h30v30h-30V78.955z M299.304,84.955h-18v18h18V84.955z"/>
<path display="none" d="M311.304,78.955h6v24h18v-24h6v30h-30V78.955z"/>
<path display="none" d="M347.304,78.955h30v18h-12l11.039,23.137l-6.068-0.091l-13.033-23.046h-3.938v23.046h-6V78.955z
	 M371.304,84.955h-18v6h18V84.955z"/>
<path display="none" d="M383.304,102.955h24v-6h-24v-18h30v6h-24v6h24v18h-30V102.955z"/>
<path display="none" d="M419.304,78.955h30v6h-24v6h12v6h-12v6h24v6h-30V78.955z"/>
<path display="none" d="M455.304,78.955h6v24h24v6h-30V78.955z"/>
<path display="none" d="M491.304,78.955h30v6h-24v6h12v6h-12v23.046h-6V78.955z"/>
<path d="M48.025,72.955h-18v-9h45v9h-18v47.046h-9V72.955z"/>
<path d="M76.825,78.955h30v18h-12l12.186,23.046h-6.667L86.763,96.955h-3.938v23.046h-6V78.955z M100.825,84.955h-18v6h18V84.955z"
	/>
<path d="M112.825,78.955h30v41.046h-6V96.955h-18v23.953l-6-0.907V78.955z M136.825,84.955h-18v6h18V84.955z"/>
<path d="M148.825,78.955h30v6h-24v18h24v6h-30V78.955z"/>
<path d="M184.825,78.955h6v12h4.219l12-12l3.891,3.938l-11.109,11.062l12.642,26.384l-6.125-0.338l-11.298-23.046h-4.219v23.046h-6
	V78.955z"/>
<path d="M246.769,90.955h-15.754v-27h7.877v18h23.633v-18h7.877v27h-15.755l0.369,29.046h-8.246V90.955z"/>
<path d="M275.304,78.955h30v30h-30V78.955z M299.304,84.955h-18v18h18V84.955z"/>
<path d="M311.304,78.955h6v24h18v-24h6v30h-30V78.955z"/>
<path d="M347.304,78.955h30v18h-12l11.039,23.137l-6.068-0.091l-13.033-23.046h-3.938v23.046h-6V78.955z M371.304,84.955h-18v6h18
	V84.955z"/>
<path d="M383.304,102.955h24v-6h-24v-18h30v6h-24v6h24v18h-30V102.955z"/>
<path d="M419.304,78.955h30v6h-24v6h12v6h-12v6h24v6h-30V78.955z"/>
<path d="M455.304,78.955h6v24h24v6h-30V78.955z"/>
<path d="M491.304,78.955h30v6h-24v6h12v6h-12v23.046h-6V78.955z"/>
<path display="none" fill="#2182BF" stroke="#2182BF" stroke-width="2" d="M48.075,72.955H30.025v-9h45.123v9H57.099v47.046h-9.024
	V72.955z"/>
<path display="none" fill="#FD7A2C" stroke="#FD7A2C" stroke-width="2" d="M78.758,78.955h30.082v18H96.807l11.75,23.046h-7.802
	L88.723,96.955h-3.948v23.046h-6.016V78.955z M102.824,84.955H84.774v6h18.049V84.955z"/>
<path display="none" fill="#2182BF" stroke="#2182BF" stroke-width="2" d="M113.653,78.955h30.082v41.046h-6.016V96.955h-18.049
	v23.046h-6.017V78.955z M137.719,84.955h-18.049v6h18.049V84.955z"/>
<path display="none" fill="#FD7A2C" stroke="#FD7A2C" stroke-width="2" d="M148.548,78.955h30.082v6h-24.066v18h24.066v6h-30.082
	V78.955z"/>
<path display="none" fill="#2182BF" stroke="#2182BF" stroke-width="2" d="M183.443,78.955h6.017v12h4.23l12.033-12l3.901,3.938
	l-11.14,11.062l14.142,26.046h-6.903L193.69,96.955h-4.23v23.046h-6.017V78.955z"/>
<path display="none" fill="#FD7A2C" stroke="#FD7A2C" stroke-width="2" d="M247.696,90.955h-18.049v-27h9.024v18h27.074v-18h9.024
	v27h-18.049v29.046h-9.024V90.955z"/>
<path display="none" fill="#2182BF" stroke="#2182BF" stroke-width="2" d="M280.185,78.955h30.082v30h-30.082V78.955z
	 M304.251,84.955h-18.05v18h18.05V84.955z"/>
<path display="none" fill="#FD7A2C" stroke="#FD7A2C" stroke-width="2" d="M315.08,78.955h6.017v24h18.049v-24h6.017v30H315.08
	V78.955z"/>
<path display="none" fill="#2182BF" stroke="#2182BF" stroke-width="2" d="M349.975,78.955h30.082v18h-12.033l12.612,23.046h-8.664
	l-12.032-23.046h-3.948v23.046h-6.017V78.955z M374.04,84.955h-18.049v6h18.049V84.955z"/>
<path display="none" fill="#FD7A2C" stroke="#FD7A2C" stroke-width="2" d="M384.869,102.955h24.065v-6h-24.065v-18h30.082v6h-24.065
	v6h24.065v18h-30.082V102.955z"/>
<path display="none" fill="#2182BF" stroke="#2182BF" stroke-width="2" d="M419.765,78.955h30.081v6H425.78v6h12.033v6H425.78v6
	h24.065v6h-30.081V78.955z"/>
<path display="none" fill="#FD7A2C" stroke="#FD7A2C" stroke-width="2" d="M454.66,78.955h6.017v24h24.065v6H454.66V78.955z"/>
<path display="none" fill="#2182BF" stroke="#2182BF" stroke-width="2" d="M489.555,78.955h30.082v6h-24.065v6h12.032v6h-12.032
	v23.046h-6.017V78.955z"/>
<path display="none" stroke="#000000" stroke-width="2" d="M48.075,72.955H30.025v-9h45.123v9H57.099v47.046h-9.024V72.955z"/>
<path display="none" stroke="#000000" stroke-width="2" d="M78.758,78.955h30.082v18H96.807l11.75,23.046h-7.802L88.723,96.955
	h-3.948v23.046h-6.016V78.955z M102.824,84.955H84.774v6h18.049V84.955z"/>
<path display="none" stroke="#000000" stroke-width="2" d="M113.653,78.955h30.082v41.046h-6.016V96.955h-18.049v23.046h-6.017
	V78.955z M137.719,84.955h-18.049v6h18.049V84.955z"/>
<path display="none" stroke="#000000" stroke-width="2" d="M148.548,78.955h30.082v6h-24.066v18h24.066v6h-30.082V78.955z"/>
<path display="none" stroke="#000000" stroke-width="2" d="M183.443,78.955h6.017v12h4.23l12.033-12l3.901,3.938l-11.14,11.062
	l14.142,26.046h-6.903L193.69,96.955h-4.23v23.046h-6.017V78.955z"/>
<path display="none" stroke="#000000" stroke-width="2" d="M247.696,90.955h-18.049v-27h9.024v18h27.074v-18h9.024v27h-18.049
	v29.046h-9.024V90.955z"/>
<path display="none" stroke="#000000" stroke-width="2" d="M280.185,78.955h30.082v30h-30.082V78.955z M304.251,84.955h-18.05v18
	h18.05V84.955z"/>
<path display="none" stroke="#000000" stroke-width="2" d="M315.08,78.955h6.017v24h18.049v-24h6.017v30H315.08V78.955z"/>
<path display="none" stroke="#000000" stroke-width="2" d="M349.975,78.955h30.082v18h-12.033l12.612,23.046h-8.664l-12.032-23.046
	h-3.948v23.046h-6.017V78.955z M374.04,84.955h-18.049v6h18.049V84.955z"/>
<path display="none" stroke="#000000" stroke-width="2" d="M384.869,102.955h24.065v-6h-24.065v-18h30.082v6h-24.065v6h24.065v18
	h-30.082V102.955z"/>
<path display="none" stroke="#000000" stroke-width="2" d="M419.765,78.955h30.081v6H425.78v6h12.033v6H425.78v6h24.065v6h-30.081
	V78.955z"/>
<path display="none" stroke="#000000" stroke-width="2" d="M454.66,78.955h6.017v24h24.065v6H454.66V78.955z"/>
<path display="none" stroke="#000000" stroke-width="2" d="M489.555,78.955h30.082v6h-24.065v6h12.032v6h-12.032v23.046h-6.017
	V78.955z"/>
<text transform="matrix(1 0 0 1 30.0254 98.9473)" display="none"><tspan x="0" y="0" display="inline" font-family="'imagine-font'" font-size="72" letter-spacing="-7">T</tspan><tspan x="46.8" y="0" display="inline" font-family="'imagine-font'" font-size="48">rack</tspan><tspan x="185.878" y="0" display="inline" font-family="'imagine-font'" font-size="72" letter-spacing="-7"> </tspan><tspan x="196.678" y="0" display="inline" font-family="'imagine-font'" font-size="72" letter-spacing="-5">Y</tspan><tspan x="245.278" y="0" display="inline" font-family="'imagine-font'" font-size="48">ourself</tspan></text>
<text id="Track_Yourself_dark_blue_1_" transform="matrix(1 0 0 1 31.0264 98.9473)" display="none"><tspan x="0" y="0" display="inline" fill="#03318C" font-family="'imagine-font'" font-size="72" letter-spacing="-7">T</tspan><tspan x="46.8" y="0" display="inline" fill="#03318C" font-family="'imagine-font'" font-size="48">rack</tspan><tspan x="185.878" y="0" display="inline" fill="#03318C" font-family="'imagine-font'" font-size="72" letter-spacing="-7"> </tspan><tspan x="196.678" y="0" display="inline" fill="#03318C" font-family="'imagine-font'" font-size="72" letter-spacing="-5">Y</tspan><tspan x="245.278" y="0" display="inline" fill="#03318C" font-family="'imagine-font'" font-size="48">ourself</tspan></text>
<line fill="none" stroke="#000000" stroke-width="4" x1="10.354" y1="120.001" x2="533.187" y2="120.001"/>
<line fill="none" stroke="#000000" stroke-width="4" x1="11.182" y1="121.835" x2="11.182" y2="2.166"/>
<line display="none" fill="none" stroke="#000000" stroke-width="2" x1="53.061" y1="132.009" x2="53.061" y2="120.009"/>
<line display="none" fill="none" stroke="#000000" stroke-width="2" x1="12.336" y1="79.97" x2="0.336" y2="79.97"/>
<line display="none" fill="none" stroke="#000000" stroke-width="2" x1="12" y1="39.938" x2="0" y2="39.938"/>
<line display="none" fill="none" stroke="#000000" stroke-width="2" x1="92.373" y1="132.009" x2="92.373" y2="120.009"/>
<line display="none" fill="none" stroke="#000000" stroke-width="2" x1="132.404" y1="132.669" x2="132.404" y2="120.669"/>
<line display="none" fill="none" stroke="#000000" stroke-width="2" x1="172.436" y1="132.335" x2="172.436" y2="120.335"/>
<line display="none" fill="none" stroke="#000000" stroke-width="2" x1="212.467" y1="132.339" x2="212.467" y2="120.339"/>
<line display="none" fill="none" stroke="#000000" stroke-width="2" x1="252.498" y1="132.342" x2="252.498" y2="120.342"/>
<line display="none" fill="none" stroke="#000000" stroke-width="2" x1="292.529" y1="132.346" x2="292.529" y2="120.346"/>
<line display="none" fill="none" stroke="#000000" stroke-width="2" x1="332.561" y1="132.015" x2="332.561" y2="120.015"/>
<line display="none" fill="none" stroke="#000000" stroke-width="2" x1="370.136" y1="132.14" x2="370.136" y2="120.14"/>
<line display="none" fill="none" stroke="#000000" stroke-width="2" x1="412.623" y1="131.688" x2="412.623" y2="119.688"/>
<line display="none" fill="none" stroke="#000000" stroke-width="2" x1="452.654" y1="131.708" x2="452.654" y2="119.708"/>
<line display="none" fill="none" stroke="#000000" stroke-width="2" x1="492.686" y1="131.745" x2="492.686" y2="119.745"/>
</svg>
